# xmcd CD database file
#
# Track frame offsets:
#	150
#	16240
#	29535
#	42387
#	59300
#	73715
#	87232
#	101205
#	117372
#	127530
#	141310
#	154945
#	168560
#	180890
#	193575
#
# Disc length: 2727 seconds
#
# Revision: 0
# Processed by: cddbd v1.5.1PL0 Copyright (c) Steve Scherf et al.
# Submitted via: Feurio! 1.67 - http://www.feurio.com
#
DISCID=ca0aa50f
DTITLE=Tom Astor - Die Tom Astor Story CD 3
DYEAR=1900
DGENRE=Country
TTITLE0=Junger Adler '93
TTITLE1=Redneck Riviera
TTITLE2=Ich nehm' mir Zeit
TTITLE3=Sie ist gerne meine Frau
TTITLE4=Das letzte Hemd hat keine Taschen
TTITLE5=Ich trinke noch ein Glas mit meinen Freunden
TTITLE6=Die 50er Jahre sterben nie
TTITLE7=Und ich seh' die Trucks vorüberzieh'n
TTITLE8=Übermüdung tötet
TTITLE9=Viel erlebt und viel versäumt
TTITLE10=Tausend Träume auf Asphalt
TTITLE11=Irgendwo am Horizont
TTITLE12=Junge, zieh die Bremse an
TTITLE13=Noch 100 Kilometer
TTITLE14=Panamerican Highway
EXTD=
EXTT0=
EXTT1=
EXTT2=
EXTT3=
EXTT4=
EXTT5=
EXTT6=(Old loves never die)
EXTT7=
EXTT8=
EXTT9=(Banks of the ohio)
EXTT10=
EXTT11=
EXTT12=
EXTT13=
EXTT14=
PLAYORDER=
